<svg id="visual" viewBox="0 0 1920 1080" width="1920" height="1080" xmlns="http://www.w3.org/2000/svg" xmlns:xlink="http://www.w3.org/1999/xlink" version="1.1"><rect x="0" y="0" width="1920" height="1080" fill="#001220"></rect><path d="M0 660L45.7 667.3C91.3 674.7 182.7 689.3 274.2 705.3C365.7 721.3 457.3 738.7 548.8 734.8C640.3 731 731.7 706 823 688.5C914.3 671 1005.7 661 1097 677.5C1188.3 694 1279.7 737 1371.2 743.2C1462.7 749.3 1554.3 718.7 1645.8 705C1737.3 691.3 1828.7 694.7 1874.3 696.3L1920 698L1920 1081L1874.3 1081C1828.7 1081 1737.3 1081 1645.8 1081C1554.3 1081 1462.7 1081 1371.2 1081C1279.7 1081 1188.3 1081 1097 1081C1005.7 1081 914.3 1081 823 1081C731.7 1081 640.3 1081 548.8 1081C457.3 1081 365.7 1081 274.2 1081C182.7 1081 91.3 1081 45.7 1081L0 1081Z" fill="#fa7268"></path><path d="M0 856L45.7 844.8C91.3 833.7 182.7 811.3 274.2 795.7C365.7 780 457.3 771 548.8 775.2C640.3 779.3 731.7 796.7 823 797.2C914.3 797.7 1005.7 781.3 1097 766.3C1188.3 751.3 1279.7 737.7 1371.2 737.8C1462.7 738 1554.3 752 1645.8 773C1737.3 794 1828.7 822 1874.3 836L1920 850L1920 1081L1874.3 1081C1828.7 1081 1737.3 1081 1645.8 1081C1554.3 1081 1462.7 1081 1371.2 1081C1279.7 1081 1188.3 1081 1097 1081C1005.7 1081 914.3 1081 823 1081C731.7 1081 640.3 1081 548.8 1081C457.3 1081 365.7 1081 274.2 1081C182.7 1081 91.3 1081 45.7 1081L0 1081Z" fill="#ef5f67"></path><path d="M0 833L45.7 828.5C91.3 824 182.7 815 274.2 813C365.7 811 457.3 816 548.8 832.5C640.3 849 731.7 877 823 873.7C914.3 870.3 1005.7 835.7 1097 836.3C1188.3 837 1279.7 873 1371.2 876.7C1462.7 880.3 1554.3 851.7 1645.8 849C1737.3 846.3 1828.7 869.7 1874.3 881.3L1920 893L1920 1081L1874.3 1081C1828.7 1081 1737.3 1081 1645.8 1081C1554.3 1081 1462.7 1081 1371.2 1081C1279.7 1081 1188.3 1081 1097 1081C1005.7 1081 914.3 1081 823 1081C731.7 1081 640.3 1081 548.8 1081C457.3 1081 365.7 1081 274.2 1081C182.7 1081 91.3 1081 45.7 1081L0 1081Z" fill="#e34c67"></path><path d="M0 892L45.7 898C91.3 904 182.7 916 274.2 920.8C365.7 925.7 457.3 923.3 548.8 928.5C640.3 933.7 731.7 946.3 823 943.7C914.3 941 1005.7 923 1097 909C1188.3 895 1279.7 885 1371.2 887.2C1462.7 889.3 1554.3 903.7 1645.8 920C1737.3 936.3 1828.7 954.7 1874.3 963.8L1920 973L1920 1081L1874.3 1081C1828.7 1081 1737.3 1081 1645.8 1081C1554.3 1081 1462.7 1081 1371.2 1081C1279.7 1081 1188.3 1081 1097 1081C1005.7 1081 914.3 1081 823 1081C731.7 1081 640.3 1081 548.8 1081C457.3 1081 365.7 1081 274.2 1081C182.7 1081 91.3 1081 45.7 1081L0 1081Z" fill="#d53867"></path><path d="M0 969L45.7 970C91.3 971 182.7 973 274.2 983.7C365.7 994.3 457.3 1013.7 548.8 1018.3C640.3 1023 731.7 1013 823 1011C914.3 1009 1005.7 1015 1097 1014C1188.3 1013 1279.7 1005 1371.2 993.3C1462.7 981.7 1554.3 966.3 1645.8 963.3C1737.3 960.3 1828.7 969.7 1874.3 974.3L1920 979L1920 1081L1874.3 1081C1828.7 1081 1737.3 1081 1645.8 1081C1554.3 1081 1462.7 1081 1371.2 1081C1279.7 1081 1188.3 1081 1097 1081C1005.7 1081 914.3 1081 823 1081C731.7 1081 640.3 1081 548.8 1081C457.3 1081 365.7 1081 274.2 1081C182.7 1081 91.3 1081 45.7 1081L0 1081Z" fill="#c62368"></path></svg>