<svg id="visual" viewBox="0 0 1920 1080" width="1920" height="1080" xmlns="http://www.w3.org/2000/svg" xmlns:xlink="http://www.w3.org/1999/xlink" version="1.1"><path d="M0 98L64 90.8C128 83.7 256 69.3 384 69.3C512 69.3 640 83.7 768 89C896 94.3 1024 90.7 1152 87.2C1280 83.7 1408 80.3 1536 80.3C1664 80.3 1792 83.7 1856 85.3L1920 87L1920 0L1856 0C1792 0 1664 0 1536 0C1408 0 1280 0 1152 0C1024 0 896 0 768 0C640 0 512 0 384 0C256 0 128 0 64 0L0 0Z" fill="#005ba9"></path><path d="M0 455L64 449.5C128 444 256 433 384 409.5C512 386 640 350 768 350C896 350 1024 386 1152 378.8C1280 371.7 1408 321.3 1536 285.3C1664 249.3 1792 227.7 1856 216.8L1920 206L1920 85L1856 83.3C1792 81.7 1664 78.3 1536 78.3C1408 78.3 1280 81.7 1152 85.2C1024 88.7 896 92.3 768 87C640 81.7 512 67.3 384 67.3C256 67.3 128 81.7 64 88.8L0 96Z" fill="#0c76dc"></path><path d="M0 541L64 541C128 541 256 541 384 512.2C512 483.3 640 425.7 768 427.5C896 429.3 1024 490.7 1152 499.7C1280 508.7 1408 465.3 1536 432.8C1664 400.3 1792 378.7 1856 367.8L1920 357L1920 204L1856 214.8C1792 225.7 1664 247.3 1536 283.3C1408 319.3 1280 369.7 1152 376.8C1024 384 896 348 768 348C640 348 512 384 384 407.5C256 431 128 442 64 447.5L0 453Z" fill="#4f95ed"></path><path d="M0 681L64 697.3C128 713.7 256 746.3 384 726.7C512 707 640 635 768 622.3C896 609.7 1024 656.3 1152 670.7C1280 685 1408 667 1536 623.8C1664 580.7 1792 512.3 1856 478.2L1920 444L1920 355L1856 365.8C1792 376.7 1664 398.3 1536 430.8C1408 463.3 1280 506.7 1152 497.7C1024 488.7 896 427.3 768 425.5C640 423.7 512 481.3 384 510.2C256 539 128 539 64 539L0 539Z" fill="#64a2f0"></path><path d="M0 779L64 789.7C128 800.3 256 821.7 384 803.7C512 785.7 640 728.3 768 723C896 717.7 1024 764.3 1152 784C1280 803.7 1408 796.3 1536 764C1664 731.7 1792 674.3 1856 645.7L1920 617L1920 442L1856 476.2C1792 510.3 1664 578.7 1536 621.8C1408 665 1280 683 1152 668.7C1024 654.3 896 607.7 768 620.3C640 633 512 705 384 724.7C256 744.3 128 711.7 64 695.3L0 679Z" fill="#4f95ed"></path><path d="M0 897L64 909.7C128 922.3 256 947.7 384 917.2C512 886.7 640 800.3 768 796.7C896 793 1024 872 1152 900.8C1280 929.7 1408 908.3 1536 861.7C1664 815 1792 743 1856 707L1920 671L1920 615L1856 643.7C1792 672.3 1664 729.7 1536 762C1408 794.3 1280 801.7 1152 782C1024 762.3 896 715.7 768 721C640 726.3 512 783.7 384 801.7C256 819.7 128 798.3 64 787.7L0 777Z" fill="#0c76dc"></path><path d="M0 1081L64 1081C128 1081 256 1081 384 1081C512 1081 640 1081 768 1081C896 1081 1024 1081 1152 1081C1280 1081 1408 1081 1536 1081C1664 1081 1792 1081 1856 1081L1920 1081L1920 669L1856 705C1792 741 1664 813 1536 859.7C1408 906.3 1280 927.7 1152 898.8C1024 870 896 791 768 794.7C640 798.3 512 884.7 384 915.2C256 945.7 128 920.3 64 907.7L0 895Z" fill="#005ba9"></path></svg>